<?xml version="1.0" encoding="utf-8"?>
<!-- Generator: Adobe Illustrator 24.1.2, SVG Export Plug-In . SVG Version: 6.00 Build 0)  -->
<svg version="1.1" id="Layer_1" xmlns="http://www.w3.org/2000/svg" xmlns:xlink="http://www.w3.org/1999/xlink" x="0px" y="0px"
	 viewBox="0 0 1920 1080" style="enable-background:new 0 0 1920 1080;" xml:space="preserve">
<g>
	<path d="M895.58,793.92c-2.29,0-4.61,0-7.04,0c-0.95,1.91-1.91,3.82-2.92,5.85c-1.59,0.71-3.29,1.44-5.32,1.26
		c-1.21-0.11-2.4,0.12-3.71,0.63c-2.36,0.92-5.04,0.52-7.35-0.95c-1.93-4.35-2.41-9.03-3.35-13.63c-1.63-8.04-0.31-16.09-0.95-24.1
		c-0.21-2.68,1.42-4.92,1.12-7.6c-0.29-2.63-0.66-5.51,0.09-7.95c0.94-3.08,0.8-6.08,0.82-9.13c0.01-2.11,1.42-3.85,1.12-6.1
		c-0.27-2.01-0.61-4.24,0.9-6.08c0.08-0.1,0.03-0.33,0.01-0.49c-0.73-4.77,1.64-9.35,0.94-14.08c-0.35-2.4,1.25-4.26,1.15-6.6
		c-0.09-2.17-0.92-4.6,0.88-6.6c0.17-0.18,0.06-0.65,0.02-0.98c-0.73-5.1,1.27-10,1.09-15.09c-0.09-2.51,1.21-4.92,1-7.59
		c-0.19-2.29-0.21-4.49-2.07-6.21c0-13.63,0.09-27.29-0.1-40.95c-0.03-2.06,1.08-3.64,1.15-5.58c0.07-1.87-0.85-3.99,0.95-5.59
		c-0.7-3.14,0.8-6.04,1.13-9.07c0.39-3.58,0.36-7.27,1.73-10.74c0.4-1.01,0.04-2.3,0.16-3.44c0.17-1.56-0.66-3.28,0.91-4.65
		c0.33-0.29,0.35-1.62,0.03-1.88c-2.32-1.89-0.29-4.62-1.5-6.93c-1.03-1.97-0.35-4.83-0.46-7.29c-0.12-2.77,1.4-5.13,2.17-7.62
		c1.39-4.53,3.03-9.05,5.65-13.15c1.39-2.18,2.4-4.69,3.12-7.19c0.72-2.52,2.35-4.47,3.79-6.4c1.43-1.92,2.84-3.82,3.72-6
		c1.08-2.69,2.91-4.86,4.61-7.07c3.49-4.54,5.07-9.93,6.89-15.15c4.02-11.51,7.76-23.12,11.5-34.74c1.99-6.19,3.72-12.46,5.56-18.7
		c0.69-2.33,2.25-4.45,1.97-7.11c-3.78,0.65-5.27,4.09-8.04,5.88c-2.85,1.84-4.85,5.04-7.75,6.76c-2.99,1.77-4.68,4.77-7.76,6.49
		c-2.88,1.6-5.06,4.49-7.74,6.63c-2.56,2.04-4.54,4.82-6.94,7.45c-1.21-2.05-0.81-3.59,0.13-5.11c-0.89-0.72-1.53-0.28-2.09,0.42
		c-0.88,1.11-2.02,1.57-3.15,1.24c-1.65,2.75-3.42,4.81-6.19,6.18c-4.84,2.4-7.53,6.42-8.51,11.86c-0.79,4.41-2.41,8.67-3.45,13.04
		c-1.08,4.54-2.39,9.03-3.6,13.53c-1.13,4.18-2.55,8.32-3.42,12.55c-1.1,5.37-3.12,10.51-3.55,16.08c-0.29,3.74-1.95,7.33-1.9,11.18
		c-1.74,1.42-0.66,3.39-1.03,5.08c-0.36,1.69-1.48,3.26-0.96,5.09c0.55,1.91-1.44,3.15-1.1,5.1c0.29,1.67-0.17,3.36-0.73,5.13
		c-0.79,2.5-0.85,5.41-0.96,8.04c-0.15,3.92-1.75,7.63-1.26,11.58c0.2,1.59-1.25,2.83-1.05,4.59c0.17,1.51,0.68,3.29-0.89,4.62
		c-0.25,0.21,0,0.96-0.04,1.46c-0.39,4.27-0.81,8.5-1.88,12.7c-0.65,2.58-0.55,5.37-0.97,8.08c-1.13,7.3-2.98,14.38-4.89,21.49
		c-0.69,2.55-1.58,5.07-2.12,7.61c-0.52,2.46-1.29,4.83-1.83,7.26c-0.57,2.59-1.54,5.07-2.17,7.59c-1.14,4.54-2,9.17-3.15,13.72
		c-1.11,4.4-1.35,8.97-2.92,13.28c-0.43,1.18-0.09,2.64-0.06,3.98c0.02,1.16-1.37,1.74-1.04,3.09c0.59,2.44-1.69,4.57-0.96,7.08
		c-1.99,1.83,0.03,4.86-2,6.67c0.25,4.37-1.59,8.39-2.11,12.66c-0.51,4.14-1.74,8.23-3,12.23c-1.22,3.88-2.14,7.8-2.98,11.78
		c-1.01,4.74-2.32,9.43-2.98,14.25c-2.13,1.6,0.25,4.61-1.93,6.2c0.5,2.32-0.77,4.41-1.19,6.55c-0.71,3.63-1.5,7.31-2.48,10.92
		c-0.57,2.1-1.24,4.42-1.17,6.45c0.16,4.46-1.34,8.7-1.1,13.09c0.09,1.72-1.41,2.82-1.14,4.6c0.2,1.33,0.04,2.68-0.71,4.17
		c-0.92,1.85,0.33,4.48-1.21,6.48c0.76,2.99-1.17,5.63-1.06,8.59c0.09,2.53-1.57,4.93-0.94,7.58c-2.29,1.96,0.32,5.22-1.9,7.23
		c-0.18,0.16-0.14,0.63-0.09,0.94c0.63,3.79-1.66,7.3-1.01,11.09c0.34,1.99-1.23,3.55-1.09,5.59c0.12,1.84,0.8,3.94-0.88,5.61
		c-0.25,0.25,0.02,0.97-0.04,1.46c-0.26,2.21,0.39,4.38-0.85,6.66c-0.9,1.66,0.45,4.18-1.12,6.03c-0.16,0.19-0.03,0.65-0.02,0.98
		c0.08,7.38-1.54,14.66-1.06,22.09c0.33,5.15-0.07,10.33,0.1,15.49c0.18,5.38,1.93,10.41,3.85,15.72
		c-0.63,4.37-4.23,7.93-5.51,12.27c-1.57,5.31-6.92,5.79-9.72,9.49c-1.36,0-2.81,0-4.3,0c-6.89-4.46-11.83-10.67-15.02-18.16
		c-1.27-2.97-1.6-6.34-2.33-9.53c-0.45-1.98-0.35-4.33-1.42-5.88c-1.33-1.92,0.62-4.41-1.56-5.92c-0.23-0.16-0.03-0.95-0.03-1.45
		c0-7-0.01-14,0-21c0-1.92,1.36-3.52,1.07-5.6c-0.24-1.68-0.61-3.61,0.91-5.09c0.08-0.08,0.03-0.33,0.01-0.49
		c-0.71-4.77,1.26-9.36,0.97-14.08c-0.35-5.75,1.62-11.31,1.15-17.1c-0.13-1.58,1.01-3.24,0.96-5.08c-0.05-1.55-0.52-3.13,0.55-4.76
		c1-1.51-0.05-3.61,0.44-5.31c0.88-3.03,1.38-6.11,1.93-9.19c0.52-2.93,1.32-5.84,1.76-8.72c0.4-2.66,1.02-5.34,1.4-8.01
		c0.65-4.64,1.05-9.37,2.64-13.86c0.42-1.18,0.36-2.63,0.16-3.9c-0.22-1.45,0.98-2.24,1.17-3.58c0.48-3.41,0.96-6.83,1.74-10.22
		c0.73-3.2,1.67-6.46,1.97-9.65c0.43-4.63,1.97-9,2.37-13.64c0.21-2.42,0.04-5.29,1.26-7.39c1.31-2.27-0.24-4.68,1.36-7.01
		c1.06-1.55,0.8-4.33,0.99-6.47c0.47-5.11,1.57-10.11,2.4-15.12c0.79-4.75,1.12-9.64,2.63-14.34c0.69-2.14,0.62-4.68,1.1-7.05
		c0.89-4.34,1.03-8.87,2.19-13.12c0.79-2.89,0.99-5.86,1.85-8.71c0.8-2.68,1.78-5.27,2.31-8.07c0.78-4.13,2.33-8.06,2.87-12.33
		c0.37-2.86,0.97-5.99,2.17-8.54c1-2.13-0.46-4.7,1.67-6.32c-0.51-2.32,1.7-4.23,1-6.59c1.83-3.88,1.17-8.37,3-12.26
		c-0.73-2.83,1.59-5.29,0.99-8.08c-0.37-1.71,1.34-2.83,1.09-4.6c-0.18-1.34-0.05-2.68,0.71-4.18c0.93-1.85-0.34-4.48,1.21-6.48
		c-0.77-3.63,1.53-7,0.96-10.58c-0.31-1.91,1.42-3.16,1.14-5.11c-0.21-1.48-0.75-3.26,0.71-4.68c0.35-0.34,0.17-1.25,0.19-1.89
		c0.08-2.4,0-4.73,0.88-7.13c0.74-2.01-0.47-4.54,1.12-6.54c-0.77-3.47,1.41-6.68,0.96-10.08c-0.29-2.2,0.86-4.06,1.25-6.05
		c0.33-1.7,0.22-3.64,0.93-5.06c0.8-1.6,0.96-3.08,0.81-4.65c-0.11-1.17,2.03-1.62,0.77-2.99c-0.91-0.59-1.49-0.01-2.05,0.62
		c-3.51,3.89-7.76,7.07-10.68,11.56c-1.2,1.85-3.49,2.88-5.08,4.39c-5.06,4.81-10.03,9.69-14.08,15.56
		c-2.98,4.32-6.21,8.61-9.97,12.46c-4.06,4.15-7.77,8.67-11.52,13.13c-2.5,2.98-5.29,5.85-7.53,8.97
		c-5.01,6.97-11.1,12.86-17.12,18.86c-0.88,0.87-1.96,1.62-2.96,2.36c-3.61,2.68-6.58,6.09-7.7,10.64
		c-0.58,2.38-2.15,4.22-3.48,6.03c-5.23,7.09-9.44,14.83-14.5,22.03c-6.98,9.92-11.28,21.32-17.01,31.94
		c-4.84,8.97-9.27,18.17-14.08,27.15c-2.2,4.12-4.95,7.95-7.33,11.97c-1.1,1.85-1.78,3.95-2.88,5.8
		c-6.07,10.26-11.05,21.09-16.53,31.66c-1.7,3.27-4.27,5.83-6.11,8.95c-1.97,3.34-3.65,6.79-5.16,10.37
		c-2.82,6.67-5.61,13.39-9.11,19.7c-1.48,2.67-3.75,5.08-5.55,7.71c-1.55,2.27-3.97,3.82-6.47,4.81c-3.78,1.5-5.5,4.59-6.78,7.96
		c-2.34,6.17-3.38,7.08-9.55,7.11c-1.33-1.01-1.77-2.58-2.54-4.02c0.34-0.66,1.08-1.4,0.98-2.02c-0.58-3.81,0.9-7.38,1.13-11.09
		c0.24-3.95,2.18-7.64,4.41-10.6c5.09-6.74,7.76-14.46,10.45-22.21c0.96-2.77,1.94-5.57,3.15-8.19c2.6-5.61,4.8-11.34,7.03-17.09
		c1.04-2.69,2.51-5.29,3.58-8.01c2.61-6.59,5.8-12.94,7.79-19.77c0.57-1.94,1.42-3.92,1.41-5.88c-0.01-4.26,1.55-8.08,3.32-11.65
		c2.39-4.83,3.64-9.85,4.91-15c0.71-2.9,1.36-5.96,3.34-8.63c1.94-2.6,3.45-5.56,5.28-8.31c1.66-2.49,2.36-5.68,3.19-8.64
		c1.03-3.63,2.94-6.82,4.77-10.02c1.82-3.18,3.66-6.4,6.63-8.79c0.79-0.63,1.46-1.8,1.58-2.79c0.44-3.7,2.61-6.72,4.34-9.68
		c1.42-2.45,2.6-5.04,3.58-7.55c2.25-5.73,4.67-11.4,6.82-17.18c0.32-0.86,0.77-1.66,1.33-2.46c3.68-5.21,7.05-10.66,9.53-16.53
		c2.46-5.81,4.58-11.8,6.35-17.85c0.93-3.2,2.84-5.58,4.73-8.03c1.47-1.9,2.6-3.76,3.57-6.04c1.86-4.39,3.67-8.82,5.55-13.2
		c2.56-5.95,5.23-11.84,8.17-17.62c0.93-1.83,2.3-3.35,3.07-5.22c2.23-5.41,4.92-10.61,7.14-16.04c1.63-3.99,4.38-7.53,6.76-11.19
		c1.7-2.62,3.3-5.28,4.08-8.31c0.7-2.72,3.19-4.72,3.03-7.75c3.46-6.72,5.51-14.09,9.12-20.71c2.37-4.35,4.5-8.87,7.38-12.97
		c1.49-2.12,2.33-4.69,3.51-7.03c3.08-6.12,6.63-11.96,10.34-17.72c0.5-0.78,1-1.58,1.41-2.42c3.23-6.56,6.79-12.94,10.94-18.97
		c0.6-0.87,0.82-1.99,1.31-2.95c4.84-9.51,10.33-18.67,15.17-28.2c2.22-4.38,4.79-8.77,7.82-12.78c3.86-5.12,6.11-11.13,8.96-16.79
		c3.6-7.15,7.02-14.42,10.18-21.78c1.39-3.24,2.79-6.55,4.18-9.76c1.57-3.62,3.58-7.24,5.78-10.58c2.93-4.44,4.82-9.37,7.43-13.94
		c7.2-12.62,13.42-25.75,19.77-38.81c3.1-6.37,5.75-12.95,8.73-19.38c1.94-4.2,3.93-8.39,6.2-12.43c2.9-5.16,6.28-10.05,9.09-15.25
		c2.22-4.12,4.95-7.9,7.24-11.97c2.58-4.6,4.93-9.31,7.36-13.97c0.65-1.24,1.62-2,2.44-2.97c1.24-1.47,2.97-2.54,3.58-4.55
		c0-1.32,0-2.63,0-4.45c0.89-0.78,1.96-1.81,3.13-2.73c6.54-5.18,11.42-9.68,18.07-18.9c1.84-2.55,4.18-4.95,7.15-6.66
		c2.02-1.16,4.18-2.41,5.71-4.37c2.16-2.77,5.03-3.94,8.54-3.53c0.65,0.08,1.33,0.01,1,0.01c3.22,0.85,4.62,2.69,6.47,4.49
		c0,0.41-0.11,1.06,0.02,1.67c0.42,2.07,1.05,3.87,0.18,6.25c-0.77,2.12-1.62,3.97-2.82,5.86c-1.15,1.82-2.15,3.77-3.35,5.6
		c-1.57,2.39-3.03,8.08-3.03,10.73c-0.01,1.99,0,3.98,0,5.83c-1.72,2.96-3.42,5.75-4.98,8.61c-1.29,2.37-1.51,5.06-2.05,7.65
		c-0.64,3.02-0.85,6.22-3.02,8.99c0.94,2.95-1.9,5.68-0.78,8.66c-1.74,1.59-3.12,3.11-5.04,4.18c-1.61,0.89-2.77,2.57-3.64,4.41
		c-2.77,5.86-5.55,11.69-7.53,17.88c-0.75,2.33-1.67,4.74-3.09,6.7c-4.97,6.9-8.16,14.64-10.45,22.68
		c-2.42,8.49-5.49,16.74-8.11,25.14c-0.87,2.8-1.35,5.76-2.64,8.42c-1.31,2.71-1.69,5.72-2.25,8.53c-0.76,3.85-1.83,7.64-2.49,11.52
		c-0.87,5.07-2.16,10.08-3.37,15.09c-0.76,3.17-2.05,6.24-2.47,9.45c-0.43,3.31-1.88,6.28-2.65,9.46c-0.51,2.1,0.56,4.64-1.44,6.37
		c-0.12,5.1-1.88,9.86-2.85,14.78c-1.09,5.54-2.88,10.9-3.81,16.41c-0.69,4.05-1.94,7.96-2.46,12.06c-0.63,4.92-2.26,9.7-3.36,14.57
		c-0.9,3.97-1.86,7.95-2.44,11.97c-0.33,2.27-2.23,4.45-0.63,6.99c3.4-3.51,7.33-6.41,10.97-9.63c3.31-2.93,6.27-6.28,9.78-8.9
		c5.33-3.98,9.44-9.18,14.4-13.48c6.16-5.34,12.3-10.7,18.34-16.17c2.39-2.16,4.79-4.38,7.26-6.47c3.56-3.01,6.93-6.38,10.9-8.72
		c4.19-2.47,6.54-6.13,7.74-10.29c1.55-5.33,3.88-10.09,6.9-14.67c1.42-2.15,1.75-5.11,3.36-7.04c1.89-2.26,1.71-4.99,2.77-7.4
		c1.36-3.09,2.29-6.36,3.8-9.42c1.57-3.17,2.8-6.51,4.34-9.7c1.01-2.09,2.04-4.28,3.53-6.01c2.85-3.31,4.85-6.82,5.56-11.25
		c0.35-2.17,1.78-4.33,3-6.19c1.66-2.53,2.53-5.33,3.66-8.01c1.13-2.69,3.01-5.02,3.45-8.12c0.17-1.21,1.66-2.63,2.56-3.91
		c3.31-4.7,5.45-10.07,7.07-15.53c0.82-2.74,2.65-4.92,3.27-7.66c4.13-4.11,4.44-10.24,7.78-14.78c-0.28-1.87,1.23-2.81,2.01-4.18
		c2.14-3.74,4.35-7.41,5.23-11.85c0.59-2.95,2.8-5.49,4.66-8.07c2.2-3.05,3.95-6.43,6.42-9.36c1.17-0.09,2.56,0.21,3.36-0.35
		c2.82-1.93,4.86-0.23,6.84,1.25c1.59,1.19,2.86,2.78,4.42,4.34c0.47,3.41-0.48,6.61-1.52,10.04c-1.08,3.55-2.27,7.08-3.22,10.67
		c-0.32,1.23-0.73,2.55-1.31,3.45c-2.29,3.59-3.78,7.5-4.7,11.55c-0.47,2.07-1.31,4.14-2.43,5.45c-2.07,2.44-2.45,5.35-4.19,8.57
		c1.89-0.61,3.14-1.68,3.24-2.49c0.21-1.7,2.04-2.09,2.27-3.6c0.22-1.45,1.79-1.86,2.37-3.05c1.46,1.19,1.83,2.16,1.13,4.18
		c-3.17,9.09-7.91,17.41-12.13,25.98c-2.63,5.35-5.3,10.69-7.87,15.89c-2.66-0.03-0.66-2.39-2.06-2.96
		c-0.37-0.01-0.81-0.13-1.27,0.25c-1.18,0.95-1.94,2.36-2.07,3.62c-0.25,2.4-1.95,4.26-2.06,6.84c1.57,0.22,1.83-2.33,3.59-1.68
		c1.3,2.42,0.02,4.99-1.07,6.63c-4.76,7.19-7.97,15.01-10.84,23.04c-0.15,0.43-0.88,0.55-0.46,2c0.33,0.56,1.4,1.49,2.52,2.35
		c1.61-0.95,3.22-1.5,4.49-2.83c8.33-8.79,18.42-15.39,28.3-22.2c4.28-2.95,8.61-5.86,12.72-9.02c3.52-2.7,7.4-4.71,11.09-7.08
		c4.5-2.89,9.15-5.58,13.25-9.08c2.99-2.55,6.56-4.25,10.09-5.79c4.84-2.11,8.86-5.33,13.02-8.39c5.42-3.99,11.02-7.47,17.43-9.86
		c3.98-1.48,7.98-3.41,11.51-6.01c0.99-0.73,2.11-1.34,3.24-1.81c7.82-3.27,15.41-7.09,23.18-10.43c5.78-2.48,11.44-5.41,17.64-6.91
		c4.36-1.05,8.6-2.68,12.98-3.63c8.91-1.95,15.95-4.13,25.79-8.99c6.08-3,12.62-4.93,19.05-7.11c5.83-1.98,11.77-3.64,17.39-6.3
		c3.35-1.59,7.03-2.71,10.9-2.66c2.17,0.03,4.7,0.71,6.4-0.18c2-1.03,3.85-0.36,5.67-0.85c1.93-0.52,3.78-1.32,5.68-1.96
		c3.14-1.06,6.43-1.46,9.63-2.19c4.09-0.93,8.09-0.57,12.12-0.85c0.64,0.71,1.48,1.12,1.66,2.3c0.29,1.79-0.5,3.5-1.42,4.38
		c-2.51,2.41-3.55,5.56-5.2,8.41c-4.11,7.07-9.75,12.38-17.66,14.85c-1.37,0.43-2.51,1.19-3.82,1.67c-2.6,0.97-4.83,2.8-7.59,3.39
		c-2.76,0.59-4.72,3.13-7.75,3.05c-0.59-0.01-0.91,0.75-1.56,1.02c-3.69,1.56-7.2,3.43-11.1,4.61c-5.44,1.65-10.62,4.17-16.07,5.81
		c-2.39,0.72-4.29,2.67-6.97,2.57c-0.38-0.01-0.76,0.54-1.18,0.72c-1.49,0.65-1.28,2.75-3.05,3.3c-1.67,0.51-1.96,2.42-2.58,3.79
		c-0.36,0.79-0.77,1.63-1.39,1.87c-3.43,1.33-5.04,4.85-8.27,6.55c-2.25,1.19-3.87,3.61-5.72,5.53c-1.78,1.85-3.97,3.07-6.64,4.73
		c0.13-4.71,3.97-6.36,6.38-10c-6.22,2.6-9.38,7.3-13.95,11.32c2.61-0.49,2.61-0.49,4.91-2.77c1.5,1,2.13,2.04,1.15,3.98
		c-0.68,1.36-1.44,2.6-2.59,3.39c-3.73,2.56-7.01,5.64-10.54,8.42c-2.97,2.34-5.63,4.95-8.34,7.53c-0.07,0.79-0.15,1.58-0.22,2.32
		c-5.15,1.17-9.77,2.97-13.22,7.08c-1.39,1.65-3.04,3.08-4.56,4.61c0.15,0.62,1.08,0.77,0.77,2.28c-0.98,1.55-3.35,2.6-5.18,3.9
		c-6.07,4.33-12,8.79-17,14.32c-2.99,3.31-6.87,5.54-9.9,8.78c-2.96,3.16-5.83,6.49-9.22,9.14c-8.13,6.35-14.73,14.24-22.13,21.31
		c-4.23,4.04-8.42,8.06-13.3,11.35c-2.03,1.37-3.61,3.44-5.34,5.24c-3.84,3.97-7.95,7.6-12.58,10.64c-1.22,0.8-2.69,1.93-3.05,3.19
		c-0.52,1.83-1.82,2.82-3.02,3.73c-13.22,10.01-23.72,22.9-36,33.87c-8.28,7.4-15.61,15.74-23.96,23
		c-4.47,3.89-8.94,7.78-12.86,12.18c-3.64,4.09-7.7,7.87-10.7,12.53c-0.44,0.68-1.15,1.2-1.75,1.78
		c-6.71,6.62-12.63,13.97-18.26,21.47c-3.32,4.43-5.95,9.47-8.78,14.29c-2.83,4.83-5.04,10-8.21,14.65c-1.51,2.22-2,5.15-2.92,7.76
		c-1.3,3.7-1.87,7.59-2.57,11.41c-0.39,2.15-0.4,4.53,1.26,6.51c1.65,0.72,3.4,1.71,5.37,1.19c2.23-0.59,3.91,1.23,6.1,1.13
		c1.84-0.09,3.94-0.94,5.66,0.78c0.34,0.34,1.27,0.15,1.92,0.12c12.06-0.72,24.03,1.49,36.08,1.03c3.56-0.14,6.94,1.26,10.59,1.1
		c3.9-0.17,7.72-0.74,11.58-1.05c3.81-0.31,7.78,0.52,11.46-0.23c3.91-0.79,7.83-0.24,11.59-0.97c3.89-0.76,7.88-0.14,11.57-1.02
		c5.74-1.37,11.43-0.74,17.12-0.79c17.83-0.15,35.66,0.03,53.49-0.13c3.61-0.03,6.94,1.48,10.59,1.14
		c3.47-0.32,6.99-0.07,10.49-0.07c3.67,0,7.34-0.16,11,0.06c2.2,0.13,4.26,1.2,6.59,0.99c2.22-0.2,4.43,0.48,6.6,0.76
		c4.75,0.61,9.77,0.88,14.45,0.03c7.4-1.35,14.85,0.15,22.09-0.99c9.73-1.53,19.43-0.22,29.1-0.94c2.4-0.18,4.34,1.02,6.59,1.15
		c2.03,0.11,4.33-1.06,6.09,0.94c2.22-0.37,4.61,0.79,6.7-0.72c0.77-0.55,1.6-0.26,2.39-0.26c5.83-0.03,11.67-0.04,17.5,0
		c1.09,0.01,2.31-0.46,3.22,0.72c0.21,0.27,0.97,0.37,1.36,0.23c5.27-1.95,10.83-0.08,16.08-1.07c9.03-1.71,18.09-0.29,27.1-0.94
		c6.59-0.47,13.01,1.65,19.59,1.04c3.41,1.64,7.13,0.38,10.57,1.08c9.18,1.89,18.42,0.26,27.6,0.98c3.65,0.28,7.01-1.25,10.59-1.06
		c3.91-2.59,7.72-0.08,11.56,0.32c0.48,0.05,0.96,0.79,1.7,0.68c5.1-0.76,10.02,1.11,14.9,1.04c1.19,0.71,2.27,1.35,3.19,1.89
		c0.8,1.26,0.31,2.44,0.46,3.56c-0.83,0.82-1.66,1.64-2.1,2.08c-6.48,2.11-12.75,1.14-18.94,1.48c-1.99,0.11-4.07,0.62-5.88,1.45
		c-3.83,1.75-7.76,2.64-11.97,2.51c-3.16-0.1-6.33,0.07-9.5-0.04c-5.5-0.18-10.6,1.39-15.55,3.51c-3.53,1.51-7.08,2.57-10.96,2.53
		c-7.5-0.07-15-0.02-22.5-0.02c-5.33,0-10.75-0.59-15.97,0.17c-5.23,0.76-10.5,0.15-15.58,1.01c-4.41,0.75-8.77,0.41-13.11,0.9
		c-3.89,0.44-7.64,1.89-11.61,2.09c-0.96,1.4-2.41,0.78-3.66,0.8c-3.33,0.07-6.69,0.26-9.99-0.06c-2.23-0.21-3.99,1.05-6.09,1.15
		c-2.03,0.09-4.19-0.91-6.17,0.84c-0.65,0.58-2.26,0-3.42,0.11c-3.36,0.32-6.75-0.6-10.15,0.83c-1.31,0.55-3.32,0.35-5.19-0.44
		c-1.98-0.84-4.55-0.54-6.82-0.34c-2.08,0.18-4.12,1.69-6.18-0.06c-1.96,0.75-3.95,1.31-6.09,1c-1.43,1.97-3.9,0.55-5.78,1.85
		c-1.34,0.93-3.61,1-5.37,1.49c-1.24,0.34-2.45,0.63-3.7,0.64c-7.83,0.04-15.74,0.73-23.48-0.13c-14.21-1.58-28.45,0.12-42.58-1.05
		c-6.55-0.54-13.07-0.64-19.6-0.77c-6.66-0.13-13.33-0.07-20,0c-1.95,0.02-4.08-0.65-5.83,0.35c-1.93,1.11-3.85,0.44-5.75,0.59
		c-1.99,0.15-4.18-0.49-5.96,0.14c-4.19,1.49-8.5,0.19-12.6,0.99c-5.7,1.11-11.5,0.18-17.07,1.1c-4.59,0.76-9.12,0.3-13.61,0.89
		c-3.03,0.4-6,0.96-9.1,0.98c-3.43,0.02-6.58-1.53-10.09-1.15c-3.46,0.38-7.18,0.78-10.44-0.09c-4.43-1.18-8.76-0.57-13.13-0.8
		c-2.4-0.13-4.55-1.43-7.09-1.1c-2.19,0.29-4.54,0.46-6.58-0.93c-5.33,0.15-10.34-2.16-15.67-2c-2.41-1.88-5.49-0.15-7.92-1.39
		c-2.59-1.32-5.19-0.09-7.96-0.76c-1.1,5.18-2.13,10.22-3.24,15.25c-1.1,5-2.27,9.99-1.99,15.17c-2.2,3.27,0.24,7.41-2,10.67
		c0.76,3.15-1.57,5.98-0.96,9.08c0.29,1.47-1.16,2.21-1.09,3.6c0.06,1.22,0.1,2.4-0.61,3.74c-1.08,2.04,0.3,4.81-1.34,6.93
		c0.08,5.81-2.54,11.31-2,17.17c-1.78,3.91-0.79,8.05-0.98,12.09c-0.11,2.3-1.4,4.3-1.12,6.75c0.25,2.16,0.72,4.57-0.89,6.58
		c-0.08,0.1-0.03,0.33-0.01,0.49c0.63,4.44-1.65,8.65-1,13.08c0.31,2.14-1.47,3.85-1.07,6.1c0.34,1.94,0.6,4.18-0.04,5.95
		c-1.34,3.7-0.17,7.53-1,11.1c-1.32,5.71-0.16,11.49-1.05,17.08c-0.72,4.56-0.51,9.08-0.93,13.6
		C898.64,788.34,896.99,791.11,895.58,793.92z M732.57,607.4c2.95-1.8,3.88-4.12,5.47-5.82c3.89-4.13,7.41-8.54,10.94-12.97
		c3.83-4.81,8.14-9.24,11.89-14.1c1.59-2.06,3.67-3.77,4.93-5.94c2.76-4.77,6.7-8.53,10.06-12.78c3.44-4.36,7.95-7.76,11.33-12.29
		c3.02-4.03,6.83-7.49,10.27-11.2c7.19-7.73,13.92-15.92,21.77-23.03c0.74-0.67,1.45-1.38,2.12-2.12c1.91-2.15,2.91-4.67,3.76-7.44
		c1.24-4.05,0.85-8.45,2.89-12.28c-0.49-2.32,1.07-4.43,0.9-6.57c-0.26-3.17,0.63-6.2,1.31-9.04c1.27-5.28,2.38-10.63,3.67-15.91
		c1.37-5.65,2.2-11.48,2.95-17.24c0.7-5.38,2.48-10.63,2.18-16.14c-0.03-0.46-0.11-0.91,0.32-1.37c1.48-1.57,0.3-3.35,0.64-4.85
		c-1.37-0.61-2,0.03-2.41,0.7c-1.57,2.58-3.56,4.9-5.14,7.4c-1.27,2-3.15,3.46-4.18,5.72c-1.68,3.66-4.02,7.03-6.29,10.38
		c-0.81,1.19-1.51,2.43-1.88,3.73c-0.7,2.45-1.97,4.51-3.32,6.64c-3.55,5.59-7.64,10.81-11.31,16.3c-1.9,2.84-4.33,5.43-5.38,8.75
		c-0.81,2.56-2,4.82-3.41,7.1c-2.01,3.26-5.02,6.19-4.68,10.54c-1.76,2.24-1.4,5.23-3.4,7.64c-5.18,6.23-9.13,13.35-12.59,20.71
		c-2.88,6.14-5.61,12.4-9.07,18.21c-4.05,6.8-7.3,14.01-11.27,20.84c-2.63,4.52-4.63,9.38-6.73,14.19
		c-3.08,7.06-6.87,13.81-10.25,20.74C736.91,599.49,734.18,602.58,732.57,607.4z M993.62,416.75c0.73-1.47,1.05-2.8,1.87-3.64
		c4.16-4.32,8.18-8.83,12.77-12.65c3.32-2.76,6.89-5.3,9.96-8.31c3.99-3.91,8.51-7.19,12.51-11.09c1.69-1.64,3.86-3.16,6.04-4.48
		c3.59-2.18,7.65-4.03,9.52-8.29c0.25-0.57,0.86-1.02,1.39-1.42c3.7-2.79,7.47-5.42,10.91-8.62c3.25-3.02,7.14-5.44,10.33-8.64
		c1.59-1.6,3.19-3.12,5.19-4.31c2.71-1.61,5.32-3.5,7.65-5.63c3.69-3.36,7.1-7.03,10.65-10.55c0.7-0.69,0.85-1.34-0.29-2.47
		c-3.2,2.53-7.14,4.03-10.59,6.38c-4.7,3.2-9.23,6.63-13.92,9.85c-3.74,2.57-7.86,4.64-11.34,7.51c-5.45,4.5-11.29,8.51-16.59,13.24
		c-2.47,2.21-5.01,4.47-7.75,6.45c-3.71,2.68-7.76,4.94-11.21,7.88c-5.45,4.65-11.8,7.66-17.96,11.03
		c-4.51,2.46-8.89,5.13-12.16,9.09c-1.62,1.96-3.58,3.18-5.13,4.16c-1.25,2.66-3.07,4.69-2.43,7.31c-3.28,2.78-4.98,6.15-6.36,10.04
		c-1.22,3.43-1.79,6.94-2.53,10.4c-0.33,1.55-2.35,3.03-0.56,5.15C978.88,427.45,985.83,421.63,993.62,416.75z"/>
	<path d="M1316.02,206.03c1.13,0,1.54-2.22,3.23-0.83c1.75,1.78,4.14,2.81,7.15,3.24c-1.58,2.55-4.25,2.35-5.89,3.83
		c-2.34,3.84-4.6,7.81-9.48,7.85c-5.83-3.43-5.27-8.6-4.97-13.68C1309.31,204.62,1312.63,204.36,1316.02,206.03z"/>
</g>
</svg>
