<?xml version="1.0" encoding="utf-8"?>
<!-- Generator: Adobe Illustrator 24.1.2, SVG Export Plug-In . SVG Version: 6.00 Build 0)  -->
<svg version="1.1" id="Layer_1" xmlns="http://www.w3.org/2000/svg" xmlns:xlink="http://www.w3.org/1999/xlink" x="0px" y="0px"
	 viewBox="0 0 1920 1080" style="enable-background:new 0 0 1920 1080;" xml:space="preserve">
<style type="text/css">
	.st0{fill:#FFFFFF;}
</style>
<path class="st0" d="M703.11,549.69c-1.31,15.66,4.85,27.95,15.8,38.86c98.58,98.22,196.98,196.61,295.43,294.96
	c25.7,25.68,51.38,51.37,77.06,77.07c17.41,17.43,38.46,21.19,58.22,10.4c26.75-14.62,32-51.14,10.27-73.04
	c-28.99-29.22-58.19-58.24-87.3-87.33c-71.08-71.03-142.17-142.06-213.25-213.08c-14.62-14.61-29.14-29.31-43.91-43.76
	c-3.2-3.14-3.49-4.88-0.11-8.26C929.73,431.3,1044.04,317,1158.36,202.72c13.43-13.42,17.82-29.2,12.71-47.59
	c-8.6-30.93-48.93-43.45-73.22-22.33c-17.11,14.88-32.41,31.67-48.44,47.68c-84.67,84.54-169.26,169.17-253.88,253.77
	c-26.63,26.63-53.3,53.23-79.85,79.94C705.95,523.99,701.89,536,703.11,549.69z"/>
</svg>
